HIERARCHY
ROOT Hips
{
  OFFSET 13.6774 106.653 -34.4427
  CHANNELS 6 Xposition Yposition Zposition Zrotation Xrotation Yrotation
  JOINT ToSpine
  {
    OFFSET -2.69724 7.43032 -0.144315
    CHANNELS 3 Zrotation Xrotation Yrotation
    JOINT Spine
    {
      OFFSET -0.0310711 10.7595 1.96963
      CHANNELS 3 Zrotation Xrotation Yrotation
      JOINT Spine1
      {
        OFFSET 19.9056 3.91189 0.764692
        CHANNELS 3 Zrotation Xrotation Yrotation
        JOINT Neck
        {
          OFFSET 25.9749 7.03908 -0.130764
          CHANNELS 3 Zrotation Xrotation Yrotation
          JOINT Head
          {
            OFFSET 9.52751 0.295786 -0.907742
            CHANNELS 3 Zrotation Xrotation Yrotation
            End Site
            {
              OFFSET 16.4037 0.713936 2.7358
            }
          }
        }
        JOINT LeftShoulder
        {
          OFFSET 17.7449 4.33886 11.7777
          CHANNELS 3 Zrotation Xrotation Yrotation
          JOINT LeftArm
          {
            OFFSET 0.911315 1.27913 9.80584
            CHANNELS 3 Zrotation Xrotation Yrotation
            JOINT LeftForeArm
            {
              OFFSET 28.6126 1.18197 -3.53199
              CHANNELS 3 Zrotation Xrotation Yrotation
              JOINT LeftHand
              {
                OFFSET 27.5088 0.0218783 0.327423
                CHANNELS 3 Zrotation Xrotation Yrotation
                End Site
                {
                  OFFSET 18.6038 -0.000155887 0.382096
                }
              }
            }
          }
        }
        JOINT RightShoulder
        {
          OFFSET 17.1009 2.89543 -12.2328
          CHANNELS 3 Zrotation Xrotation Yrotation
          JOINT RightArm
          {
            OFFSET 1.4228 0.178766 -10.211
            CHANNELS 3 Zrotation Xrotation Yrotation
            JOINT RightForeArm
            {
              OFFSET 28.733 1.87905 2.64907
              CHANNELS 3 Zrotation Xrotation Yrotation
              JOINT RightHand
              {
                OFFSET 27.4588 0.290562 -0.101845
                CHANNELS 3 Zrotation Xrotation Yrotation
                End Site
                {
                  OFFSET 17.8396 -0.255518 -0.000602873
                }
              }
            }
          }
        }
      }
    }
  }
  JOINT LeftUpLeg
  {
    OFFSET -5.61296 -2.22332 -10.2353
    CHANNELS 3 Zrotation Xrotation Yrotation
    JOINT LeftLeg
    {
      OFFSET 2.56703 -44.7417 -7.93097
      CHANNELS 3 Zrotation Xrotation Yrotation
      JOINT LeftFoot
      {
        OFFSET 3.16933 -46.5642 -3.96578
        CHANNELS 3 Zrotation Xrotation Yrotation
        JOINT LeftToeBase
        {
          OFFSET 0.346054 -6.02161 12.8035
          CHANNELS 3 Zrotation Xrotation Yrotation
          End Site
          {
            OFFSET 0.134235 -1.35082 5.13018
          }
        }
      }
    }
  }
  JOINT RightUpLeg
  {
    OFFSET -5.7928 -1.72406 10.6446
    CHANNELS 3 Zrotation Xrotation Yrotation
    JOINT RightLeg
    {
      OFFSET -2.57161 -44.7178 -7.85259
      CHANNELS 3 Zrotation Xrotation Yrotation
      JOINT RightFoot
      {
        OFFSET -3.10148 -46.5936 -4.03391
        CHANNELS 3 Zrotation Xrotation Yrotation
        JOINT RightToeBase
        {
          OFFSET -0.0828122 -6.13587 12.8035
          CHANNELS 3 Zrotation Xrotation Yrotation
          End Site
          {
            OFFSET -0.131328 -1.35082 5.13018
          }
        }
      }
    }
  }
}
MOTION
Frames: 15
Frame Time: 0.03333333333333333
0.0000 93.1000 0.0000 -66.3134 -21.4193 -178.4745 -70.8959 -0.2809 87.7264 106.1778 69.9715 -16.4598 -2.1992 20.1655 0.7511 -150.3547 -10.0433 -160.9251 -151.8613 26.7179 -166.9559 1.3320 -9.3208 -29.8577 -79.9302 44.2122 -87.2054 30.6230 -1.8552 -93.3868 -0.1706 0.0435 0.0110 -2.0648 5.6206 43.4544 -73.1626 -41.6627 66.4752 9.5849 -5.7946 62.4604 0.5116 0.0025 0.0296 -54.7053 18.5691 104.5694 -2.1876 35.7717 1.7092 -8.0165 10.9774 1.8493 4.2994 -13.4661 5.7523 -31.6119 -26.2918 66.4745 2.4414 49.2787 -4.3173 -6.2953 -19.9271 0.4475 2.8861 -12.9560 -30.9292 
0.0000 93.1000 0.0000 -65.5397 -27.5136 -173.5349 -70.8768 -0.2622 87.7095 102.6516 71.5085 -11.5047 -0.5510 21.0380 1.0533 -151.1611 -8.7686 -160.9298 -151.5256 28.3705 -167.8609 1.3533 -9.7297 -30.6311 -72.5978 47.0736 -91.2782 27.7551 -2.9789 -94.6456 -0.2420 0.0667 0.2122 -1.9694 5.6511 42.9026 -76.8322 -41.8752 62.1723 10.1624 -5.9185 63.3600 0.3546 0.1313 0.2500 -54.8167 17.9503 108.5065 -1.7657 34.8810 2.5782 -6.7762 3.5276 0.8955 5.6131 -12.5848 0.4762 -35.9215 -27.6301 67.2451 -0.1408 43.8885 -8.9313 -8.9821 -21.6172 1.2660 2.8500 -14.8278 -24.0486 
0.0000 93.1000 0.0000 -66.3963 -33.3906 -171.0711 -70.8761 -0.2203 87.7050 99.5823 72.2885 -10.0944 0.9206 21.8021 1.5184 -151.8488 -7.7167 -164.6296 -153.2603 29.8249 -169.1076 1.0214 -10.2385 -30.0854 -65.6894 48.2763 -93.5005 27.2248 -2.6805 -93.8804 -0.2596 0.2364 0.0773 -1.9457 5.5970 42.3504 -79.1094 -40.8249 60.6097 13.9772 -7.8841 63.2384 0.1582 0.3429 0.0942 -55.4157 15.2584 111.1242 -2.3250 33.3981 -3.4100 -4.6549 -0.8678 0.1495 5.2282 -13.8201 2.4845 -41.0077 -26.1299 72.1640 -0.1977 37.9136 -9.9023 -10.9548 -21.1084 1.6870 2.1552 -14.9951 -23.8623 
0.0000 93.1000 0.0000 -65.5931 -40.4027 -167.0192 -70.8750 -0.1896 87.7083 93.5672 72.0190 -7.1558 1.8638 21.1811 2.4449 -151.2222 -6.1698 -167.6242 -149.6330 31.4907 -168.9429 0.6741 -10.4327 -29.8547 -64.4458 49.8533 -90.3063 29.0753 -0.3538 -89.9600 -0.2729 0.3830 0.1953 -2.0377 4.9283 42.5167 -79.2736 -41.5175 61.8303 16.0643 -9.9139 60.6032 -0.1159 0.4666 0.0800 -53.3531 12.3713 106.1725 -3.6304 35.0511 -8.4891 -0.7192 -4.1362 -0.7481 5.3837 -14.2421 6.0782 -45.9371 -23.0749 80.1945 0.1587 34.1357 -5.8586 -10.7913 -19.5056 1.6465 2.1693 -16.0096 -26.3937 
0.0000 93.1000 0.0000 -62.2978 -48.3624 -161.3201 -70.8837 -0.1999 87.7303 91.6232 71.0252 -5.3339 2.3864 20.6726 2.9019 -152.0462 -4.0658 -170.9110 -150.7302 33.4754 -168.1089 0.5791 -11.0389 -29.7980 -66.0481 49.1449 -85.1250 27.4285 2.4292 -84.8320 -0.1389 0.3041 0.4025 -1.9799 4.7732 42.0012 -79.9253 -42.2269 64.1488 17.9650 -12.2182 57.5132 0.2050 0.2851 0.0698 -50.2623 7.4104 97.5784 -3.2983 37.7452 -8.1662 2.0234 -8.0537 -1.1344 4.1576 -12.1880 7.5254 -48.0446 -18.3229 86.5269 0.7664 37.8293 -2.7189 -9.8962 -16.0229 1.2244 2.6602 -18.1846 -24.7653 
0.0000 93.1000 0.0000 -59.2516 -52.0227 -155.6660 -70.8990 -0.1339 87.7676 87.7912 70.9964 -0.3778 3.8605 20.9087 0.9339 -153.0779 -2.4051 -173.3577 -150.4126 35.5928 -168.8151 0.1233 -11.5714 -29.6341 -70.6222 49.0005 -79.0099 26.8665 5.8352 -79.1424 -0.3737 0.5599 0.1376 -1.8549 4.8277 41.3679 -78.2995 -43.8342 67.2311 16.3341 -12.1216 55.7354 -0.0452 0.5690 -0.0229 -50.7388 2.9574 94.2321 -2.7975 35.5937 -6.1383 3.1337 -10.2606 -1.5100 2.9325 -9.9855 8.7417 -48.8609 -11.8010 92.3868 1.4003 40.9696 -0.5997 -8.7964 -13.6729 1.3689 2.3951 -17.3258 -21.7450 
0.0000 93.1000 0.0000 -55.4709 -54.9131 -150.3356 -70.9155 -0.2424 87.8243 85.3754 71.5925 0.4074 3.5088 21.5750 -0.1050 -153.9418 -0.0159 -175.1594 -151.1024 38.1278 -168.9266 0.5145 -12.2947 -30.5447 -77.2558 47.4167 -71.0955 25.8631 8.1758 -72.8604 -0.3776 -0.0555 0.7786 -1.8248 4.8489 41.0427 -74.7253 -43.0299 68.8841 16.9568 -14.2393 53.5943 0.3324 -0.1851 0.0881 -51.4057 0.0094 91.8789 -2.8982 35.7986 -6.7859 4.8475 -12.4170 -1.1521 1.3382 -7.9404 8.1156 -47.3858 -7.3191 95.6855 1.6016 44.4894 0.3037 -9.5393 -11.0083 1.1382 1.9201 -17.5422 -18.1370 
0.0000 93.1000 0.0000 -48.9850 -59.2912 -142.0005 -70.9410 -0.0065 87.8183 90.8966 71.9868 -5.6974 2.2161 21.4157 1.4086 -156.0083 3.2756 -176.7168 -153.2840 41.9819 -168.0171 -0.8132 -12.7759 -30.4043 -80.0288 45.0902 -68.4068 24.2896 9.9667 -68.5457 -0.2654 1.0845 -0.3553 -1.8105 4.9490 41.3905 -73.2531 -42.7874 70.4800 18.9315 -15.8420 52.7715 -0.0069 1.1368 -0.4938 -52.0529 -2.3703 91.1943 -1.7743 35.1946 -10.8005 5.9660 -13.2751 -2.4871 1.7695 -7.7117 7.5267 -46.6000 -1.9308 96.3421 1.8938 46.8806 -0.7413 -9.1314 -9.3167 1.7716 2.5108 -18.0696 -15.7476 
0.0000 93.1000 0.0000 -36.5576 -63.6288 -126.0261 -70.9103 -0.0107 87.8364 87.5892 71.2878 -3.3949 3.0840 20.2942 1.1152 -156.1567 5.9571 179.5959 -152.5799 44.5740 -170.4720 -0.6752 -12.8255 -29.0372 -81.8141 42.2613 -67.1973 23.1944 10.1555 -67.0397 -0.3096 0.9508 -0.3092 -1.9206 4.5682 41.9771 -73.1456 -43.7818 70.1979 18.2054 -15.5163 52.6812 -0.3707 0.9421 -0.2602 -52.4990 -3.2631 92.2936 -1.5272 33.9436 -18.3449 6.1367 -12.0242 -2.2491 1.3126 -7.3956 9.7502 -44.7484 2.6334 94.7720 2.6104 47.0359 -0.4745 -7.2026 -5.7105 1.3616 2.0867 -18.5819 -20.1574 
0.0000 93.1000 0.0000 -18.7634 -65.6742 -108.0087 -70.9511 -0.0591 87.8776 86.6149 70.5123 -2.7869 2.8569 19.2940 0.0879 -156.0717 9.1144 174.8423 -153.0972 48.4969 -167.9193 -0.4666 -12.9071 -28.7712 -82.5958 40.0188 -68.4445 23.1925 9.8703 -67.1811 -0.2637 0.5438 -0.4095 -1.8933 4.7332 42.2847 -71.2039 -43.8877 69.1631 16.4285 -15.2445 50.3523 -0.0940 0.6050 -0.2876 -52.6574 -4.1602 94.8059 -1.3647 32.9455 -20.2664 6.6042 -12.6288 -1.9723 1.1996 -7.5220 11.0029 -41.3643 5.0209 93.2304 1.6963 45.5611 1.1811 -7.8336 -2.2371 1.1738 1.7655 -19.0136 -18.1771 
0.0000 93.1000 0.0000 -2.9407 -64.6757 -89.9296 -70.9622 -0.1101 87.9022 89.6217 69.2458 -4.0108 2.0510 19.1867 -0.3059 -155.7855 12.8401 173.3584 -152.0576 52.0426 -168.1175 -0.0889 -12.7863 -28.6634 -83.5492 37.0397 -70.7358 23.1990 10.1598 -68.1693 -0.1146 0.2693 0.0859 -1.7645 4.9867 42.0176 -69.6955 -44.6214 69.1718 14.9593 -14.7628 49.2999 0.3268 0.2552 -0.2573 -52.1139 -6.2313 93.1487 -2.0969 33.0535 -13.9427 4.3505 -13.0648 -1.5287 3.1734 -11.1086 15.0834 -36.1402 5.8592 90.1086 1.7594 45.9720 2.6503 -7.8787 -0.7445 0.8939 2.4362 -21.6917 -17.8790 
0.0000 93.1000 0.0000 12.1938 -62.6068 -72.7443 -70.9610 -0.0936 87.9169 94.6505 67.9952 -8.6838 0.7521 17.7518 0.6573 -156.5405 16.0612 171.1819 -149.7478 55.7537 -169.0965 -0.1537 -13.0352 -29.8100 -84.6961 34.8020 -74.5881 23.3982 8.8860 -70.0760 0.0192 0.3689 0.1729 -1.5424 4.8182 42.1462 -67.8833 -44.7932 69.0461 13.7252 -14.0122 47.2956 -0.1500 0.4132 -0.0741 -51.5567 -8.0361 92.2110 -2.6782 36.7824 -8.1287 3.4471 -15.1187 -1.6703 4.6571 -14.3097 17.5960 -29.2804 4.6352 87.3295 1.6438 47.1480 2.0299 -6.0141 -3.7679 0.7215 2.5951 -19.6206 -18.0094 
0.0000 93.1000 0.0000 24.1317 -58.9036 -59.7866 -70.9595 -0.1422 87.9162 100.5804 67.4577 -15.1873 -0.9316 17.0858 1.6280 -157.5604 19.7717 168.0672 -147.3846 59.0884 -173.6628 0.1108 -13.8853 -31.2229 -86.3009 31.8964 -77.6199 24.1185 5.8404 -75.3950 -0.1254 0.0854 0.1506 -1.5649 4.5339 43.6057 -66.8846 -44.9772 68.1800 12.2424 -13.1748 45.3464 0.0743 0.1918 0.0441 -49.5921 -8.1463 95.0280 -3.7632 42.8035 -7.1378 2.8359 -19.0802 -1.7054 4.8890 -15.2775 16.0158 -21.1924 4.6478 84.9640 1.3050 49.1336 2.1471 -6.9811 -3.7278 0.8100 2.4201 -20.2942 -20.6098 
0.0000 93.1000 0.0000 33.1119 -54.7781 -48.4083 -70.9659 -0.0778 87.8894 108.8414 66.1016 -25.1100 -2.0169 16.6784 3.0666 -159.6775 22.7079 164.3763 -145.5620 61.2258 -177.1026 -0.1763 -14.6874 -31.9143 -87.7500 28.8255 -84.6726 22.1631 4.0103 -79.3368 -0.2507 0.3386 -0.2096 -1.7711 4.7688 46.2119 -63.9528 -42.9906 69.4953 10.8937 -13.7300 42.1823 -0.0999 0.5576 -0.3545 -48.6377 -8.1635 93.0545 -5.1446 50.6768 -7.9334 2.2947 -24.2047 -2.2921 5.0050 -14.4466 12.7039 -14.8248 3.8072 82.6500 2.5182 50.9276 0.8998 -7.4260 -4.9381 0.9266 2.3729 -21.4088 -21.1150 
0.0000 93.1000 0.0000 40.0499 -51.5104 -40.7573 -70.9753 -0.1020 87.8718 117.7650 64.5154 -34.3743 -3.1716 15.8828 4.9231 -163.6377 25.3464 163.4042 -145.3217 62.7517 -177.7253 -0.1377 -14.8895 -30.5924 -88.7704 28.7497 -90.1555 22.9802 1.6507 -84.1356 -0.1904 0.1839 -0.2344 -2.0996 5.3434 46.2505 -58.9068 -42.9875 72.3085 10.9644 -14.8757 38.0918 0.0906 0.4229 -0.5526 -51.5673 -6.9929 90.3400 -6.8138 56.8387 -11.9180 4.4289 -26.0426 -2.6916 6.1294 -16.3277 12.9050 -8.8636 2.9133 80.9994 2.3850 51.7944 3.1664 -7.1688 -3.9882 0.4603 0.9452 -24.6096 -22.9855 
